HIERARCHY
ROOT reference
{
  OFFSET 0 0 0
  CHANNELS 6 Xposition Yposition Zposition Zrotation Xrotation Yrotation
  JOINT Hips
  {
    OFFSET 45.9788 78.8911 93.1398
    CHANNELS 6 Xposition Yposition Zposition Zrotation Xrotation Yrotation
    JOINT Spine
    {
      OFFSET 0 7.3847 0
      CHANNELS 6 Xposition Yposition Zposition Zrotation Xrotation Yrotation
      JOINT Spine1
      {
        OFFSET 0 22.52 0
        CHANNELS 6 Xposition Yposition Zposition Zrotation Xrotation Yrotation
        JOINT Neck
        {
          OFFSET 0 22.4276 2.03887
          CHANNELS 6 Xposition Yposition Zposition Zrotation Xrotation Yrotation
          JOINT Head
          {
            OFFSET 0 12.608 -1.80115
            CHANNELS 6 Xposition Yposition Zposition Zrotation Xrotation Yrotation
            End Site
            {
              OFFSET 0 22.5143 0
            }
          }
        }
        JOINT LeftShoulder
        {
          OFFSET 3.70204 19.5563 -0.329131
          CHANNELS 6 Xposition Yposition Zposition Zrotation Xrotation Yrotation
          JOINT LeftArm
          {
            OFFSET 13.7086 0 0
            CHANNELS 6 Xposition Yposition Zposition Zrotation Xrotation Yrotation
            JOINT LeftForeArm
            {
              OFFSET 25.9307 0 0
              CHANNELS 6 Xposition Yposition Zposition Zrotation Xrotation Yrotation
              JOINT LeftHand
              {
                OFFSET 23.5097 0 0
                CHANNELS 6 Xposition Yposition Zposition Zrotation Xrotation Yrotation
                End Site
                {
                  OFFSET 13.5086 0 0
                }
              }
            }
          }
        }
        JOINT RightShoulder
        {
          OFFSET -3.48695 19.5563 -0.329131
          CHANNELS 6 Xposition Yposition Zposition Zrotation Xrotation Yrotation
          JOINT RightArm
          {
            OFFSET -13.7086 0 0
            CHANNELS 6 Xposition Yposition Zposition Zrotation Xrotation Yrotation
            JOINT RightForeArm
            {
              OFFSET -25.9307 0 0
              CHANNELS 6 Xposition Yposition Zposition Zrotation Xrotation Yrotation
              JOINT RightHand
              {
                OFFSET -23.5097 0 0
                CHANNELS 6 Xposition Yposition Zposition Zrotation Xrotation Yrotation
                End Site
                {
                  OFFSET -13.5086 0 0
                }
              }
            }
          }
        }
      }
    }
    JOINT LeftUpLeg
    {
      OFFSET 9.00574 0 0
      CHANNELS 6 Xposition Yposition Zposition Zrotation Xrotation Yrotation
      JOINT LeftLeg
      {
        OFFSET 0 -37.3387 0
        CHANNELS 6 Xposition Yposition Zposition Zrotation Xrotation Yrotation
        JOINT LeftFoot
        {
          OFFSET 0 -36.155 0
          CHANNELS 6 Xposition Yposition Zposition Zrotation Xrotation Yrotation
          JOINT LeftToeBase
          {
            OFFSET 0 -5.85373 13.5086
            CHANNELS 6 Xposition Yposition Zposition Zrotation Xrotation Yrotation
            End Site
            {
              OFFSET 0 0 3.60229
            }
          }
        }
      }
    }
    JOINT RightUpLeg
    {
      OFFSET -9.00574 0 0
      CHANNELS 6 Xposition Yposition Zposition Zrotation Xrotation Yrotation
      JOINT RightLeg
      {
        OFFSET 0 -37.3387 0
        CHANNELS 6 Xposition Yposition Zposition Zrotation Xrotation Yrotation
        JOINT RightFoot
        {
          OFFSET 0 -36.155 0
          CHANNELS 6 Xposition Yposition Zposition Zrotation Xrotation Yrotation
          JOINT RightToeBase
          {
            OFFSET 0 -5.85373 13.5086
            CHANNELS 6 Xposition Yposition Zposition Zrotation Xrotation Yrotation
            End Site
            {
              OFFSET 0 0 3.60229
            }
          }
        }
      }
    }
  }
}
MOTION
Frames:	5
Frame Time:	0.004
0 0 0 0 0 -0 34.0897 74.5971 -191.667 0.951483 4.78845 4.05617 -7.10543e-015 7.3847 2.84217e-014 -3.62726 -8.14122 0.496156 -1.42109e-014 22.52 2.84217e-014 1.15223 -2.15528 0.776115 0 22.4276 2.03887 9.40705 22.6718 0.903813 1.42109e-014 12.608 -1.80115 -6.33784 -2.57236 0.476384 3.70204 19.5563 -0.329131 21.5705 -0.831027 -5.01161 13.7086 0 2.84217e-014 -26.0869 -0.62576 2.71181 25.9307 -2.84217e-014 2.84217e-014 3.77569 -1.37421 1.2576 23.5097 0 0 -8.28195 -1.24475 -2.4784 -3.48695 19.5563 -0.329131 -15.7578 -1.30258 -2.99968 -13.7086 -2.84217e-014 -2.84217e-014 16.5427 4.60491 4.03895 -25.9307 0 0 -1.63028 -1.07942 0.411769 -23.5097 -2.84217e-014 2.84217e-014 6.11904 -1.02656 0.88154 9.00574 -7.10543e-015 2.84217e-014 -0.757521 -9.79688 0.672354 -7.10543e-015 -37.3387 -2.84217e-014 -2.34173 17.9869 3.34798 0 -36.155 2.84217e-014 0.239841 -12.882 1.15876 0 -5.85373 13.5086 4.19311e-017 3.41661e-017 -1.59028e-015 -9.00574 7.10543e-015 0 -0.634407 -2.72975 0.76752 7.10543e-015 -37.3387 0 7.89371 10.1795 -4.10841 -3.55271e-015 -36.155 2.84217e-014 -8.29749 -13.3556 -22.0142 7.10543e-015 -5.85373 13.5086 9.93923e-017 0 -0 
0 0 0 0 0 -0 34.0897 74.5971 -191.663 0.95074 4.7989 4.05623 -7.10543e-015 7.3847 0 -3.62726 -8.14122 0.496156 0 22.52 2.84217e-014 1.15223 -2.15528 0.776115 0 22.4276 2.03887 9.40705 22.6718 0.903813 0 12.608 -1.80115 -6.33769 -2.59114 0.476391 3.70204 19.5563 -0.329131 21.5705 -0.831027 -5.01161 13.7086 -1.42109e-014 0 -26.0876 -0.610731 2.7118 25.9307 -2.84217e-014 -2.84217e-014 3.79891 -1.3742 1.28076 23.5097 0 0 -8.41979 -1.23925 -2.52904 -3.48695 19.5563 -0.329131 -15.7588 -1.32245 -2.99971 -13.7086 0 0 16.5433 4.60495 4.03155 -25.9307 -2.84217e-014 2.84217e-014 -1.63041 -1.06184 0.411766 -23.5097 0 0 6.10973 -1.00958 0.870811 9.00574 7.10543e-015 0 -0.757521 -9.79688 0.672354 -7.10543e-015 -37.3387 0 -2.3396 17.9749 3.4024 -1.42109e-014 -36.155 2.84217e-014 0.228826 -12.8641 1.11089 1.42109e-014 -5.85373 13.5086 -2.42657e-017 5.74612e-017 -3.18055e-015 -9.00574 -7.10543e-015 -2.84217e-014 -0.633564 -2.72974 0.785233 0 -37.3387 2.84217e-014 7.89961 10.1791 -4.14179 0 -36.155 0 -8.29602 -13.3562 -22.0078 0 -5.85373 13.5086 4.96962e-017 -9.93923e-017 -3.18055e-015 
0 0 0 0 0 -0 34.0897 74.5971 -191.658 0.950314 4.80488 4.05627 0 7.3847 0 -3.62726 -8.14122 0.496156 0 22.52 0 1.15223 -2.15528 0.776115 0 22.4276 2.03887 9.41806 22.6699 0.900114 0 12.608 -1.80115 -6.34712 -2.5848 0.471847 3.70204 19.5563 -0.329131 21.5707 -0.828316 -5.01161 13.7086 -1.42109e-014 -2.84217e-014 -26.087 -0.623027 2.71181 25.9307 -2.84217e-014 0 3.79114 -1.3742 1.27884 23.5097 0 0 -8.39325 -1.23211 -2.51345 -3.48695 19.5563 -0.329131 -15.7591 -1.32809 -2.99971 -13.7086 0 -2.84217e-014 16.5443 4.60258 4.0212 -25.9307 2.84217e-014 -2.84217e-014 -1.62868 -1.05479 0.411765 -23.5097 -2.84217e-014 0 6.08626 -1.00258 0.872594 9.00574 7.10543e-015 2.84217e-014 -0.757521 -9.79688 0.672354 0 -37.3387 2.84217e-014 -2.33653 17.9772 3.34783 0 -36.155 0 0.237311 -12.8808 1.14752 0 -5.85373 13.5086 1.69666e-016 -2.17421e-017 1.59028e-015 -9.00574 0 0 -0.633998 -2.72975 0.776106 0 -37.3387 0 7.90029 10.179 -4.14565 0 -36.155 0 -8.29134 -13.3581 -21.9876 0 -5.85373 13.5086 1.10348e-032 -1.98785e-016 3.18055e-015 
0 0 0 0 0 -0 34.0897 74.5971 -191.652 0.949973 4.80967 4.0563 0 7.3847 2.84217e-014 -3.62726 -8.14122 0.496156 0 22.52 -2.84217e-014 1.15223 -2.15528 0.776115 7.10543e-015 22.4276 2.03887 9.4374 22.5765 0.933501 -1.42109e-014 12.608 -1.80115 -6.38277 -2.43872 0.501176 3.70204 19.5563 -0.329131 21.5711 -0.815831 -5.01159 13.7086 1.42109e-014 0 -26.0858 -0.625678 2.69772 25.9307 0 0 3.78962 -1.38848 1.27793 23.5097 0 -2.84217e-014 -8.11503 -1.25496 -2.47835 -3.48695 19.5563 -0.329131 -15.7584 -1.31451 -2.9997 -13.7086 0 0 16.5371 4.58468 4.02593 -25.9307 0 5.68434e-014 -1.61367 -1.04933 0.411765 -23.5097 2.84217e-014 2.84217e-014 6.06852 -0.997746 0.864098 9.00574 0 2.84217e-014 -0.748447 -9.7969 0.660778 0 -37.3387 0 -2.34558 17.977 3.37821 0 -36.155 2.84217e-014 0.233733 -12.8869 1.13096 0 -5.85373 13.5086 3.49426e-017 6.21202e-018 -0 -9.00574 1.42109e-014 2.84217e-014 -0.623526 -2.72974 0.781761 0 -37.3387 0 7.89797 10.1792 -4.13252 -3.55271e-015 -36.155 2.84217e-014 -8.29378 -13.3571 -21.9981 -7.10543e-015 -5.85373 13.5086 1.49089e-016 -9.93923e-017 -6.36111e-015 
0 0 0 0 0 -0 34.0918 74.5971 -191.647 0.950256 4.81769 4.05339 0 7.3847 2.84217e-014 -3.62717 -8.14573 0.496576 0 22.52 -2.84217e-014 1.15217 -2.15017 0.776446 -7.10543e-015 22.4276 2.03887 9.44617 22.5606 0.933251 0 12.608 -1.80115 -6.39276 -2.42208 0.499279 3.70204 19.5563 -0.329131 21.5715 -0.80314 -5.01158 13.7086 0 0 -26.0721 -0.655281 2.68882 25.9307 2.84217e-014 2.84217e-014 3.76904 -1.37035 1.27707 23.5097 0 0 -8.06215 -1.23868 -2.46553 -3.48695 19.5563 -0.329131 -15.7558 -1.31738 -2.9997 -13.7086 0 2.84217e-014 16.5298 4.58496 4.02765 -25.9307 0 -2.84217e-014 -1.60875 -1.03632 0.411763 -23.5097 0 2.84217e-014 6.09852 -0.985044 0.854927 9.00574 -7.10543e-015 2.84217e-014 -0.753255 -9.80083 0.658423 7.10543e-015 -37.3387 0 -2.341 17.9741 3.37688 0 -36.155 2.84217e-014 0.23361 -12.879 1.13109 0 -5.85373 13.5086 -3.20307e-017 -9.31803e-018 -0 -9.00574 7.10543e-015 0 -0.626517 -2.72974 0.790644 0 -37.3387 -2.84217e-014 7.90797 10.1808 -4.12371 0 -36.155 0 -8.30221 -13.3577 -22.0288 -7.10543e-015 -5.85373 13.5086 4.96962e-017 -9.93923e-017 -6.36111e-015 
